
        <svg xmlns="http://www.w3.org/2000/svg" xmlns:xlink="http://www.w3.org/1999/xlink" version="1.1" width="3146.276595744681" 
        height="555.8510638297872" viewBox="0 0 3146.276595744681 555.8510638297872">
			
			<g transform="scale(7.3138297872340425) translate(10, 10)">
				<defs id="SvgjsDefs1027"></defs><g id="SvgjsG1028" featureKey="symbolContainer" transform="matrix(1,0,0,1,0,0)" fill="#99ddcc">    <rect width="72" height="56"></rect></g><g id="SvgjsG1029" featureKey="monogramFeature-0" transform="matrix(0.6046784960860535,0,0,0.6046784960860535,19.492069394354747,4.478594398769209)" fill="#111111"><path d="M51 53.4 c0.54 2.82 2.46 3.54 2.46 5.22 l0 0.24 c0 0.72 -0.6 1.14 -1.44 1.14 l-12.48 0 c-0.9 0 -1.44 -0.42 -1.44 -1.14 l0 -0.24 c0 -1.68 2.58 -2.46 2.1 -5.22 l-3.6 -20.94 l-9.18 25.74 c-0.42 1.2 -0.96 1.74 -2.16 1.74 c-1.26 0 -1.98 -0.48 -2.52 -1.68 l-10.5 -26.76 l-3.24 21.9 c-0.42 2.82 2.16 3.54 2.16 5.22 l0 0.24 c0 0.72 -0.6 1.14 -1.44 1.14 l-7.44 0 c-0.9 0 -1.44 -0.42 -1.44 -1.14 l0 -0.24 c0 -1.68 2.04 -2.4 2.46 -5.22 l4.56 -29.4 c0.42 -2.76 -2.34 -3.48 -2.34 -5.22 l0 -0.24 c0 -0.72 0.54 -1.14 1.38 -1.14 l7.92 0 c1.62 0 2.7 0.72 3.24 2.16 l8.7 25.44 l8.4 -25.32 c0.54 -1.5 1.56 -2.28 3.12 -2.28 l8.16 0 c0.84 0 1.38 0.42 1.38 1.14 l0 0.24 c0 1.68 -2.88 2.46 -2.34 5.34 z"></path></g><g id="SvgjsG1030" featureKey="nameFeature-0" transform="matrix(0.7985335468372671,0,0,0.7985335468372671,91.55281973638172,6.243386497408209)" fill="#99ddcc"><path d="M34 35.6 c0.36 1.88 1.64 2.36 1.64 3.48 l0 0.16 c0 0.48 -0.4 0.76 -0.96 0.76 l-8.32 0 c-0.6 0 -0.96 -0.28 -0.96 -0.76 l0 -0.16 c0 -1.12 1.72 -1.64 1.4 -3.48 l-2.4 -13.96 l-6.12 17.16 c-0.28 0.8 -0.64 1.16 -1.44 1.16 c-0.84 0 -1.32 -0.32 -1.68 -1.12 l-7 -17.84 l-2.16 14.6 c-0.28 1.88 1.44 2.36 1.44 3.48 l0 0.16 c0 0.48 -0.4 0.76 -0.96 0.76 l-4.96 0 c-0.6 0 -0.96 -0.28 -0.96 -0.76 l0 -0.16 c0 -1.12 1.36 -1.6 1.64 -3.48 l3.04 -19.6 c0.28 -1.84 -1.56 -2.32 -1.56 -3.48 l0 -0.16 c0 -0.48 0.36 -0.76 0.92 -0.76 l5.28 0 c1.08 0 1.8 0.48 2.16 1.44 l5.8 16.96 l5.6 -16.88 c0.36 -1 1.04 -1.52 2.08 -1.52 l5.44 0 c0.56 0 0.92 0.28 0.92 0.76 l0 0.16 c0 1.12 -1.92 1.64 -1.56 3.56 z M53.44 33.68 c0.56 -0.56 1.52 -0.32 1.48 0.56 c-0.08 2.2 -2.88 6.16 -8.12 6.16 c-5.8 0 -9.88 -4.04 -9.88 -10.12 c0 -5.92 4.6 -9.88 9.84 -9.88 s7.64 2.96 7.64 5.48 c0 1.2 -0.64 2 -1.56 2.48 l-7.96 4.48 c1.04 1.64 2.6 2.6 4.56 2.6 c1.72 0 3.28 -0.8 4 -1.76 z M46.04 22.36 c-1.64 0 -2.68 1.88 -2.68 4.2 c0 1.56 0.2 3 0.6 4.2 l3.72 -2.24 c0.64 -0.44 1.04 -1.2 1.04 -2.04 c0 -1.28 -0.64 -4.12 -2.68 -4.12 z M76.88 35.64 c0 1.84 1.6 2.32 1.6 3.44 l0 0.16 c0 0.48 -0.36 0.76 -0.92 0.76 l-5.72 0 c-0.64 0 -1.04 -0.4 -1.04 -1 l0 -0.36 c-1.2 1.12 -2.92 1.76 -4.88 1.76 c-4.84 0 -9.44 -3.44 -9.44 -10 c0 -5.96 4.44 -10 9.48 -10 c1.68 0 3.04 0.4 4.12 1.12 l0 -5.32 c0 -1.88 -2.12 -2.12 -2.12 -3.28 l0 -0.12 c0 -0.44 0.36 -0.88 0.92 -1.04 l6.24 -1.88 c1.16 -0.36 1.76 -0.12 1.76 0.96 l0 24.8 z M67.52 38.44 c1.36 0.04 2.56 -1.2 2.56 -3.36 l0 -7.72 c0 -2.56 -1.76 -5 -3.6 -5 c-1.96 0 -3.04 1.72 -3.16 4.92 c-0.12 3.36 1.2 11.04 4.2 11.16 z M80.83999999999999 39.24 l0 -0.16 c0 -1.12 1.6 -1.6 1.6 -3.44 l0 -19.68 c0 -1.84 -1.6 -2.32 -1.6 -3.44 l0 -0.16 c0 -0.48 0.4 -0.76 0.96 -0.76 l8.68 0 c0.6 0 0.96 0.28 0.96 0.76 l0 0.16 c0 1.12 -1.76 1.6 -1.76 3.44 l0 19.68 c0 1.84 1.76 2.32 1.76 3.44 l0 0.16 c0 0.48 -0.36 0.76 -0.96 0.76 l-8.68 0 c-0.56 0 -0.96 -0.28 -0.96 -0.76 z M115.79999999999998 35.64 c0.12 1.84 1.44 2.32 1.44 3.48 l0 0.16 c0 0.48 -0.4 0.76 -0.96 0.76 l-8 0 c-0.6 0 -0.96 -0.28 -0.96 -0.76 l0 -0.16 c0 -1.16 1.56 -1.64 1.44 -3.48 l-0.4 -7.16 c-0.2 -3.96 -0.96 -5.44 -2.76 -5.44 c-1.76 0 -2.6 1.56 -2.6 3.88 l0 8.72 c0 1.84 1.76 2.32 1.76 3.48 l0 0.16 c0 0.48 -0.36 0.76 -0.96 0.76 l-8.64 0 c-0.6 0 -0.96 -0.28 -0.96 -0.76 l0 -0.16 c0 -1.16 1.76 -1.64 1.76 -3.48 l0 -7.88 c0 -1.92 -2.12 -2.16 -2.12 -3.32 l0 -0.12 c0 -0.48 0.4 -0.72 0.96 -1 l5.6 -2.76 c1 -0.52 1.52 0.16 1.52 0.96 l0 1.88 c1.08 -1.92 3.08 -3 5.72 -3 c3.48 0 7.16 1.96 7.64 8.32 z M127.03999999999999 40.4 c-3.96 0 -6.52 -2.56 -6.52 -7.4 l0 -9.48 l-1.52 0 c-0.52 0 -0.92 -0.4 -0.92 -0.92 l0 -0.88 c0 -0.56 0.36 -0.92 0.92 -0.92 l0.76 0 c2.44 0 4.36 -1.6 4.88 -4.04 c0.12 -0.64 0.56 -1.04 1.08 -1.04 l0.92 0 c0.64 0 1.08 0.4 1.08 1.04 l0 4.04 l4.12 0 c0.52 0 0.92 0.4 0.92 0.92 l0 0.88 c0 0.52 -0.4 0.92 -0.92 0.92 l-4.12 0 l0 9.6 c0 1.36 0.8 2.16 1.8 2.16 c1.56 0 2.2 -0.76 2.64 -1.48 c0.56 -0.72 1.52 -0.48 1.52 0.28 c0 3.08 -2.28 6.32 -6.64 6.32 z M155.27999999999997 35.6 c0 3.24 1.72 1.68 1.72 3.32 c0 1.08 -1.56 1.32 -4.12 1.32 c-2.48 0 -3.56 -0.6 -3.76 -2.32 c-1.04 1.6 -2.92 2.48 -5.64 2.48 c-4.04 0 -7.48 -2.76 -7.48 -7.88 l0 -6.68 c0 -1.88 -1.6 -2.36 -1.6 -3.36 l0 -0.16 c0 -0.44 0.36 -0.84 0.92 -0.92 l5.96 -0.8 c1.16 -0.16 1.88 0.08 1.88 0.8 l-0.12 11.84 c-0.04 3.28 0.8 4.52 2.56 4.52 c1.48 0 2.64 -1.56 2.64 -4 l0 -7.92 c0 -1.88 -1.6 -2.36 -1.6 -3.36 l0 -0.16 c0 -0.44 0.36 -0.84 0.92 -0.92 l5.96 -0.8 c1.16 -0.16 1.76 0.08 1.76 0.8 l0 14.2 z M164.04 18.44 c-2.76 0 -4.6 -1.76 -4.6 -4 c0 -2.28 1.84 -4 4.6 -4 c2.72 0 4.56 1.72 4.56 4 c0 2.24 -1.84 4 -4.56 4 z M159.76 40 c-0.6 0 -0.96 -0.28 -0.96 -0.76 l0 -0.16 c0 -1.16 1.6 -1.64 1.6 -3.48 l0 -7.6 c0 -1.84 -1.6 -2.4 -1.6 -3.36 l0 -0.16 c0 -0.44 0.36 -0.64 0.92 -0.92 l6.04 -2.96 c1.12 -0.56 1.8 0.08 1.8 0.84 l0 14.16 c0 1.84 1.8 2.32 1.8 3.48 l0 0.16 c0 0.48 -0.4 0.76 -1 0.76 l-8.6 0 z M179.39999999999998 40.4 c-3.96 0 -6.52 -2.56 -6.52 -7.4 l0 -9.48 l-1.52 0 c-0.52 0 -0.92 -0.4 -0.92 -0.92 l0 -0.88 c0 -0.56 0.36 -0.92 0.92 -0.92 l0.76 0 c2.44 0 4.36 -1.6 4.88 -4.04 c0.12 -0.64 0.56 -1.04 1.08 -1.04 l0.92 0 c0.64 0 1.08 0.4 1.08 1.04 l0 4.04 l4.12 0 c0.52 0 0.92 0.4 0.92 0.92 l0 0.88 c0 0.52 -0.4 0.92 -0.92 0.92 l-4.12 0 l0 9.6 c0 1.36 0.8 2.16 1.8 2.16 c1.56 0 2.2 -0.76 2.64 -1.48 c0.56 -0.72 1.52 -0.48 1.52 0.28 c0 3.08 -2.28 6.32 -6.64 6.32 z M208.72 40.4 c-8 0 -13.72 -7.2 -13.72 -14.96 c0 -8.12 5.28 -14.2 13.32 -14.2 c6.24 0 11.6 3.44 11.6 7.64 c0 1.84 -1.24 3.16 -3.32 3.16 c-5 0 -4.92 -7.96 -9.72 -7.96 c-2.52 0 -4.84 2.52 -4.84 6.96 c0 7.8 4.44 12.88 9 12.88 c3.72 0 5.6 -2.56 6.76 -4.24 c0.76 -0.88 2.24 -0.6 2.2 0.72 c-0.2 5.08 -3.76 10 -11.28 10 z M232.83999999999997 40.4 c-6.12 0 -11.08 -4.24 -11.08 -10.04 c0 -5.92 5.08 -9.96 10.8 -9.96 c6 0 10.96 4.16 10.96 10.04 c0 5.84 -4.84 9.96 -10.68 9.96 z M233.67999999999998 38.44 c1.88 0 2.56 -1.92 2.56 -4.92 c0 -3.12 -1.64 -11.16 -4.8 -11.16 c-1.92 0 -2.6 1.76 -2.6 5 s1.6 11.08 4.84 11.08 z M267.12 35.64 c0.12 1.84 1.44 2.32 1.44 3.48 l0 0.16 c0 0.48 -0.4 0.76 -0.96 0.76 l-8 0 c-0.6 0 -0.96 -0.28 -0.96 -0.76 l0 -0.16 c0 -1.16 1.56 -1.64 1.44 -3.48 l-0.4 -7.16 c-0.2 -3.96 -0.96 -5.44 -2.76 -5.44 c-1.76 0 -2.6 1.56 -2.6 3.88 l0 8.72 c0 1.84 1.76 2.32 1.76 3.48 l0 0.16 c0 0.48 -0.36 0.76 -0.96 0.76 l-8.64 0 c-0.6 0 -0.96 -0.28 -0.96 -0.76 l0 -0.16 c0 -1.16 1.76 -1.64 1.76 -3.48 l0 -7.88 c0 -1.92 -2.12 -2.16 -2.12 -3.32 l0 -0.12 c0 -0.48 0.4 -0.72 0.96 -1 l5.6 -2.76 c1 -0.52 1.52 0.16 1.52 0.96 l0 1.88 c1.08 -1.92 3.08 -3 5.72 -3 c3.48 0 7.16 1.96 7.64 8.32 z M278.76 40.36 c-5.04 0 -8.8 -1.88 -8.8 -4.68 c0 -1.8 1.24 -2.56 2.84 -2.56 c4 0 2.64 5.48 5.96 5.48 c1.2 0 2.16 -0.6 2.16 -2.2 c0 -5.24 -10.6 -2.16 -10.6 -9.92 c0 -3.56 3.44 -6.08 8.44 -6.08 c5.08 0 8.4 2.2 8.4 4.8 c0 1.4 -1.2 2.44 -2.68 2.44 c-3.88 0 -2.6 -5.4 -5.36 -5.4 c-1.24 0 -1.88 1.12 -1.88 2.28 c0 5.48 10.24 2.6 10.24 9.96 c0 3.32 -3.16 5.88 -8.72 5.88 z M309.84 35.6 c0 3.24 1.72 1.68 1.72 3.32 c0 1.08 -1.56 1.32 -4.12 1.32 c-2.48 0 -3.56 -0.6 -3.76 -2.32 c-1.04 1.6 -2.92 2.48 -5.64 2.48 c-4.04 0 -7.48 -2.76 -7.48 -7.88 l0 -6.68 c0 -1.88 -1.6 -2.36 -1.6 -3.36 l0 -0.16 c0 -0.44 0.36 -0.84 0.92 -0.92 l5.96 -0.8 c1.16 -0.16 1.88 0.08 1.88 0.8 l-0.12 11.84 c-0.04 3.28 0.8 4.52 2.56 4.52 c1.48 0 2.64 -1.56 2.64 -4 l0 -7.92 c0 -1.88 -1.6 -2.36 -1.6 -3.36 l0 -0.16 c0 -0.44 0.36 -0.84 0.92 -0.92 l5.96 -0.8 c1.16 -0.16 1.76 0.08 1.76 0.8 l0 14.2 z M313.99999999999994 40 c-0.56 0 -0.92 -0.28 -0.92 -0.76 l0 -0.16 c0 -1.16 1.56 -1.6 1.56 -3.44 l0 -18.28 c0 -1.88 -1.56 -2.4 -1.56 -3.4 l0 -0.16 c0 -0.44 0.36 -0.64 0.88 -0.92 l6.04 -2.96 c1.12 -0.56 1.84 0.12 1.84 0.84 l0 24.88 c0 1.84 1.76 2.28 1.76 3.44 l0 0.16 c0 0.48 -0.4 0.76 -0.96 0.76 l-8.64 0 z M333.67999999999995 40.4 c-3.96 0 -6.52 -2.56 -6.52 -7.4 l0 -9.48 l-1.52 0 c-0.52 0 -0.92 -0.4 -0.92 -0.92 l0 -0.88 c0 -0.56 0.36 -0.92 0.92 -0.92 l0.76 0 c2.44 0 4.36 -1.6 4.88 -4.04 c0.12 -0.64 0.56 -1.04 1.08 -1.04 l0.92 0 c0.64 0 1.08 0.4 1.08 1.04 l0 4.04 l4.12 0 c0.52 0 0.92 0.4 0.92 0.92 l0 0.88 c0 0.52 -0.4 0.92 -0.92 0.92 l-4.12 0 l0 9.6 c0 1.36 0.8 2.16 1.8 2.16 c1.56 0 2.2 -0.76 2.64 -1.48 c0.56 -0.72 1.52 -0.48 1.52 0.28 c0 3.08 -2.28 6.32 -6.64 6.32 z M346.84 18.44 c-2.76 0 -4.6 -1.76 -4.6 -4 c0 -2.28 1.84 -4 4.6 -4 c2.72 0 4.56 1.72 4.56 4 c0 2.24 -1.84 4 -4.56 4 z M342.55999999999995 40 c-0.6 0 -0.96 -0.28 -0.96 -0.76 l0 -0.16 c0 -1.16 1.6 -1.64 1.6 -3.48 l0 -7.6 c0 -1.84 -1.6 -2.4 -1.6 -3.36 l0 -0.16 c0 -0.44 0.36 -0.64 0.92 -0.92 l6.04 -2.96 c1.12 -0.56 1.8 0.08 1.8 0.84 l0 14.16 c0 1.84 1.8 2.32 1.8 3.48 l0 0.16 c0 0.48 -0.4 0.76 -1 0.76 l-8.6 0 z M375.5999999999999 35.64 c0.12 1.84 1.44 2.32 1.44 3.48 l0 0.16 c0 0.48 -0.4 0.76 -0.96 0.76 l-8 0 c-0.6 0 -0.96 -0.28 -0.96 -0.76 l0 -0.16 c0 -1.16 1.56 -1.64 1.44 -3.48 l-0.4 -7.16 c-0.2 -3.96 -0.96 -5.44 -2.76 -5.44 c-1.76 0 -2.6 1.56 -2.6 3.88 l0 8.72 c0 1.84 1.76 2.32 1.76 3.48 l0 0.16 c0 0.48 -0.36 0.76 -0.96 0.76 l-8.64 0 c-0.6 0 -0.96 -0.28 -0.96 -0.76 l0 -0.16 c0 -1.16 1.76 -1.64 1.76 -3.48 l0 -7.88 c0 -1.92 -2.12 -2.16 -2.12 -3.32 l0 -0.12 c0 -0.48 0.4 -0.72 0.96 -1 l5.6 -2.76 c1 -0.52 1.52 0.16 1.52 0.96 l0 1.88 c1.08 -1.92 3.08 -3 5.72 -3 c3.48 0 7.16 1.96 7.64 8.32 z M396.0799999999999 20.8 c2.6 0 3.04 0.4 2.92 1.32 c-0.16 1.56 -1.72 1.4 -3 1.8 c1.16 1.32 1.96 3.08 1.96 4.96 c0 3.08 -1.64 5.52 -4.32 6.88 c3.6 0.76 4.72 2.28 4.72 4.28 c0 3.2 -4.6 5.36 -10.44 5.36 c-5.72 0 -9.44 -1.84 -9.44 -5.24 c0 -1.24 0.88 -2.64 2.76 -2.64 c3.64 0 3.04 5.92 6.72 5.96 c2.12 0.04 3.32 -1.36 3.32 -3.36 c0 -1.72 -0.56 -2.92 -1.68 -3.24 c-0.44 0.04 -0.96 0.08 -1.44 0.08 c-5.6 0 -9.72 -3.28 -9.72 -8.04 c0 -5.08 4.04 -8.52 9.8 -8.52 c2.52 0 4.24 0.4 7.84 0.4 z M385.11999999999995 25.72 c0 4 1.88 9.24 4.04 9.24 c1.36 0 2.16 -1.28 2.16 -3.36 c0 -3.32 -1.72 -9.24 -4.12 -9.24 c-1.28 0 -2.08 1.24 -2.08 3.36 z"></path></g>
			</g>
		</svg>
	